<svg xmlns="http://www.w3.org/2000/svg" viewBox="0 0 880 380" width="880" height="380" font-family="Iowan Old Style, Palatino, Georgia, serif">
<title>Unfused vs. fused elementwise kernels</title>
<desc>Three elementwise ops — RMSNorm, RoPE, residual add — run on an activation tensor of N bytes. Unfused, each op is its own kernel: read N bytes from HBM, write N bytes back, three times over, for six HBM crossings and 6N bytes moved. Fused into one kernel, the intermediate values stay in registers and SRAM the whole time: one read of N bytes, one write of N bytes, two crossings and 2N bytes moved for the identical result.</desc>
<rect width="880" height="380" rx="8" fill="#f6f1e6"/>
<text x="24" y="34" font-size="17" font-weight="600" fill="#221c12">Fusion: stop round-tripping to HBM between tiny ops</text>

<text x="24" y="64" font-size="13" font-weight="600" fill="#221c12">Unfused: three kernels, six HBM crossings, 6N bytes</text>
<rect x="24" y="76" width="500" height="28" fill="#ece5d4" stroke="#ddd3bd"/>
<text x="32" y="95" font-size="11" fill="#6b6250">HBM</text>

<g font-family="SF Mono, Menlo, Consolas, monospace" font-size="10" fill="#a4462e">
  <line x1="70" y1="104" x2="70" y2="130" stroke="#a4462e"/>
  <line x1="90" y1="130" x2="90" y2="104" stroke="#a4462e"/>
  <line x1="230" y1="104" x2="230" y2="130" stroke="#a4462e"/>
  <line x1="250" y1="130" x2="250" y2="104" stroke="#a4462e"/>
  <line x1="390" y1="104" x2="390" y2="130" stroke="#a4462e"/>
  <line x1="410" y1="130" x2="410" y2="104" stroke="#a4462e"/>
</g>
<rect x="40" y="130" width="120" height="40" fill="#a4462e" fill-opacity="0.16" stroke="#a4462e"/>
<text x="100" y="154" font-size="11" text-anchor="middle" fill="#221c12" font-family="Iowan Old Style, Palatino, Georgia, serif">RMSNorm</text>
<rect x="200" y="130" width="120" height="40" fill="#a4462e" fill-opacity="0.16" stroke="#a4462e"/>
<text x="260" y="154" font-size="11" text-anchor="middle" fill="#221c12" font-family="Iowan Old Style, Palatino, Georgia, serif">RoPE</text>
<rect x="360" y="130" width="120" height="40" fill="#a4462e" fill-opacity="0.16" stroke="#a4462e"/>
<text x="420" y="154" font-size="11" text-anchor="middle" fill="#221c12" font-family="Iowan Old Style, Palatino, Georgia, serif">residual add</text>

<text x="24" y="192" font-size="11" fill="#6b6250">read N &#8594; write N, three separate times: <tspan font-weight="600" fill="#a4462e">6 crossings, 6N bytes moved</tspan></text>

<line x1="24" y1="212" x2="856" y2="212" stroke="#ddd3bd" stroke-width="1"/>

<text x="24" y="238" font-size="13" font-weight="600" fill="#221c12">Fused: one kernel, one read, one write, 2N bytes</text>
<rect x="24" y="250" width="500" height="28" fill="#ece5d4" stroke="#ddd3bd"/>
<text x="32" y="269" font-size="11" fill="#6b6250">HBM</text>

<line x1="150" y1="278" x2="150" y2="304" stroke="#4f7d2c"/>
<line x1="410" y1="304" x2="410" y2="278" stroke="#4f7d2c"/>

<rect x="80" y="304" width="400" height="46" fill="#4f7d2c" fill-opacity="0.16" stroke="#4f7d2c"/>
<text x="280" y="322" font-size="11" font-weight="600" text-anchor="middle" fill="#221c12">RMSNorm &#8594; RoPE &#8594; residual add, fused</text>
<text x="280" y="340" font-size="9" text-anchor="middle" fill="#6b6250">intermediates stay in registers / SRAM the whole time</text>

<text x="24" y="368" font-size="11" fill="#6b6250">one read of N, one write of N: <tspan font-weight="600" fill="#4f7d2c">2 crossings, 2N bytes moved &#8212; 3&#215; less traffic, same FLOPs</tspan></text>
</svg>
